PathFileType	4	(X/Y/Z)	E:\Qualisys_Data\Carbon_Farble_Plate\Data\Amateur_Runner\S2\T1\S2T1V11_c3d.trc
DataRate	CameraRate	NumFrames	NumMarkers	Units	OrigDataRate	OrigDataStartFrame	OrigNumFrames
200.000000	200.000000	5	39	mm	200.000000	41	328
Frame#	Time	LSHO			RSHO			LICST			RICST			LASIS			LHEEL			RASIS			LTROC			RTROC			SACR			LTH1			LSK4			LTH2			LTH3			RHM5			LSK2			LTH4			RTH1			LTOE			RTH2			RTH3			RTH4			LLEP			RLEP			LSK1			LSK3			RSK1			LHM5			RSK2			LFT1			RSK3			RSK4			LLME			RLME			RTOE			RHEEL			RFT1			RFT2			LFT2			
		X1	Y1	Z1	X2	Y2	Z2	X3	Y3	Z3	X4	Y4	Z4	X5	Y5	Z5	X6	Y6	Z6	X7	Y7	Z7	X8	Y8	Z8	X9	Y9	Z9	X10	Y10	Z10	X11	Y11	Z11	X12	Y12	Z12	X13	Y13	Z13	X14	Y14	Z14	X15	Y15	Z15	X16	Y16	Z16	X17	Y17	Z17	X18	Y18	Z18	X19	Y19	Z19	X20	Y20	Z20	X21	Y21	Z21	X22	Y22	Z22	X23	Y23	Z23	X24	Y24	Z24	X25	Y25	Z25	X26	Y26	Z26	X27	Y27	Z27	X28	Y28	Z28	X29	Y29	Z29	X30	Y30	Z30	X31	Y31	Z31	X32	Y32	Z32	X33	Y33	Z33	X34	Y34	Z34	X35	Y35	Z35	X36	Y36	Z36	X37	Y37	Z37	X38	Y38	Z38	X39	Y39	Z39	

42	0.205	-2270.5419921875	1415.598999023438	-438.6394348144531	-2259.061279296875	1378.918212890625	-115.6508712768555	-2339.333251953125	947.5526123046876	-437.0087890625	-2326.847900390625	941.8577880859376	-130.0956268310547	-2281.41552734375	900.1946411132812	-421.4193115234375	-2642.181396484375	390.8168029785156	-338.5563354492188	-2264.17041015625	900.9229125976562	-159.8636322021484	-2408.419189453125	819.4680786132812	-428.4253540039062	-2404.28662109375	841.6121215820312	-125.137092590332	-2422.8212890625	989.2119140625	-283.2720031738281	-2227.576904296875	604.00634765625	-458.6947021484375	-2465.353515625	426.7912902832031	-428.4800415039062	-2309.79638671875	586.6331176757812	-456.1824645996094	-2206.8720703125	503.2394714355469	-444.8514099121094	-2369.86181640625	74.68778228759766	-174.6027679443359	-2370.657958984375	452.8577880859375	-448.3603820800781	-2291.701904296875	488.9097595214844	-437.7105712890625	-2231.2841796875	584.5580444335938	-141.2824554443359	-2585.176513671875	153.7519073486328	-367.8570861816406	-2307.57177734375	574.0006713867188	-135.731201171875	-2220.03173828125	488.9581909179688	-173.4233703613281	-2300.640380859375	480.3017883300781	-162.3356781005859	-2248.71923828125	452.2170104980469	-446.2434387207031	-2266.04296875	449.0286254882812	-163.2299041748047	-2348.173828125	377.0001525878906	-441.6122436523438	-2444.37744140625	350.0720825195312	-428.7190246582031	-2283.00244140625	326.3901672363281	-172.525634765625	-2623.0986328125	200.9464416503906	-426.7908325195312	-2347.866943359375	368.9373474121094	-151.8468933105469	-2658.747802734375	369.79150390625	-308.2150268554688	-2340.919921875	243.0328369140625	-186.0288696289062	-2404.165283203125	286.716064453125	-165.4945220947266	-2619.07763671875	339.095458984375	-397.8585510253906	-2481.7568359375	122.6196136474609	-202.6727142333984	-2313.75830078125	69.35904693603516	-242.7455291748047	-2552.802734375	119.1496429443359	-260.5696411132812	-2541.259033203125	86.59404754638672	-286.3948974609375	-2556.210693359375	95.577880859375	-230.9169311523438	-2671.85986328125	380.4058227539062	-360.1087036132812
43	0.21	-2257.012451171875	1418.478393554688	-439.4469909667969	-2241.35107421875	1381.958618164062	-116.6331481933594	-2323.55712890625	950.7470092773438	-436.9382934570312	-2308.681884765625	943.9198608398438	-130.6091156005859	-2265.512451171875	903.1126708984376	-421.5386657714844	-2618.603515625	382.4339599609375	-338.2232971191406	-2247.386474609375	902.6889038085938	-160.1606140136719	-2392.1181640625	822.7758178710938	-428.9495849609375	-2389.246337890625	843.6424560546875	-125.7186737060547	-2406.283935546875	992.0219116210938	-282.5848693847656	-2207.37890625	608.7371215820312	-457.9292602539062	-2441.177490234375	423.9762573242188	-427.8810119628906	-2289.298583984375	590.1755981445312	-455.7705993652344	-2184.7109375	508.7856750488281	-443.0538330078125	-2369.317626953125	75.23091888427734	-174.669189453125	-2348.265380859375	454.2923889160156	-447.6161499023438	-2269.683349609375	493.1335754394531	-437.0807800292969	-2221.218017578125	584.5143432617188	-140.6751403808594	-2551.757080078125	148.7158660888672	-369.1782531738281	-2298.265625	575.5260620117188	-135.0716247558594	-2212.15087890625	487.8502197265625	-171.8550872802734	-2292.930419921875	481.6894836425781	-161.5970764160156	-2225.92822265625	457.4654235839844	-444.9184265136719	-2259.45751953125	448.7842102050781	-162.4402618408203	-2321.94287109375	377.3829040527344	-441.0269470214844	-2417.906005859375	348.6022033691406	-427.3368530273438	-2278.57080078125	326.7850646972656	-171.9217071533203	-2589.6142578125	194.9886322021484	-427.8159790039062	-2344.08740234375	369.5052795410156	-151.3387298583984	-2634.80126953125	361.6170349121094	-308.4546508789062	-2337.927734375	243.9477386474609	-185.3640289306641	-2400.51806640625	288.2272033691406	-165.0924224853516	-2593.201416015625	333.1969909667969	-398.2793579101562	-2478.90966796875	124.9139251708984	-203.1399841308594	-2314.307373046875	68.4659194946289	-244.0397033691406	-2552.3466796875	121.0771484375	-260.5382385253906	-2542.11572265625	87.57164764404297	-286.1019287109375	-2554.9990234375	96.76192474365234	-231.8949279785156	-2648.135986328125	371.4126586914062	-360.377197265625
44	0.215	-2243.60546875	1421.841430664062	-439.827392578125	-2223.364990234375	1385.65966796875	-117.5555801391602	-2307.442138671875	953.94921875	-436.6297912597656	-2291.6572265625	946.4894409179688	-130.8812866210938	-2249.519287109375	906.4518432617188	-421.5071105957031	-2594.015625	374.0650939941406	-337.9046630859375	-2231.2001953125	904.0240478515624	-159.8172760009766	-2375.528564453125	826.5447998046875	-429.5616760253906	-2375.066650390625	846.4067993164062	-126.8925399780273	-2389.361083984375	994.9849853515624	-281.6499938964844	-2187.230224609375	614.467529296875	-457.19482421875	-2417.99853515625	422.425048828125	-427.3839111328125	-2269.385009765625	594.596435546875	-455.4588928222656	-2163.060791015625	514.95654296875	-442.4961853027344	-2369.8154296875	75.60224914550781	-175.1609802246094	-2325.570556640625	455.4063110351562	-446.012939453125	-2247.21435546875	497.1589965820312	-435.861083984375	-2213.3095703125	584.6943969726562	-139.9735565185547	-2514.020751953125	145.5271911621094	-369.27880859375	-2290.2578125	577.1886596679688	-135.2937774658203	-2204.950439453125	488.59814453125	-170.5857543945312	-2286.11083984375	483.7462463378906	-161.2928314208984	-2203.22119140625	462.6250915527344	-443.7902221679688	-2254.404296875	449.4560852050781	-162.0579986572266	-2297.456787109375	379.6736145019531	-439.4148559570312	-2392.64306640625	348.0099792480469	-427.3146362304688	-2274.824462890625	327.8047485351562	-171.7694396972656	-2556.277099609375	188.8917999267578	-427.8699951171875	-2339.773681640625	370.761962890625	-151.2034149169922	-2610.4248046875	351.6715393066406	-308.3019409179688	-2336.0126953125	245.0979309082031	-186.1369323730469	-2397.464111328125	290.5693664550781	-165.3076171875	-2567.6640625	326.7671813964844	-397.8659973144531	-2478.27783203125	127.7252044677734	-203.6958618164062	-2313.320556640625	68.51089477539062	-242.9283142089844	-2550.246337890625	123.7529830932617	-261.644775390625	-2541.031982421875	90.46431732177734	-287.6232299804688	-2554.4931640625	100.4217987060547	-232.6640930175781	-2624.41064453125	362.7789916992188	-360.2657470703125
45	0.22	-2230.22412109375	1425.350708007812	-440.652099609375	-2205.6015625	1389.047607421875	-118.3294143676758	-2291.902587890625	957.8444213867188	-437.1213989257812	-2274.73779296875	949.6788330078124	-131.3360443115234	-2233.65185546875	909.8661499023438	-421.5169677734375	-2570.537353515625	364.9651489257812	-337.1734313964844	-2214.80322265625	906.2872924804688	-160.0473937988281	-2359.205810546875	830.1419677734375	-430.8617248535156	-2359.308349609375	849.154052734375	-127.3678359985352	-2373.2265625	998.4070434570312	-281.3832397460938	-2167.5126953125	620.498779296875	-456.6043090820312	-2395.10791015625	420.5597839355469	-427.1122436523438	-2249.297119140625	599.5987548828125	-454.2101745605469	-2141.430419921875	521.1817016601562	-441.2480163574219	-2369.08447265625	76.0851058959961	-175.5736846923828	-2303.299560546875	456.8477478027344	-445.057861328125	-2225.513671875	502.4684753417969	-435.2118225097656	-2204.068603515625	585.826904296875	-139.59326171875	-2481.863525390625	140.0796356201172	-371.9118957519531	-2280.80029296875	580.434814453125	-135.0777282714844	-2198.601806640625	489.3135986328125	-169.6910858154297	-2279.74365234375	486.2554626464844	-160.6019897460938	-2180.7451171875	467.5282897949219	-442.5464172363281	-2248.68212890625	451.0391845703125	-161.2339477539062	-2272.463134765625	381.5007019042969	-438.5673828125	-2366.68017578125	347.2350769042969	-426.1553955078125	-2271.730712890625	329.0120544433594	-171.1452331542969	-2522.69287109375	183.0367279052734	-428.7155456542969	-2336.255615234375	372.6744995117188	-150.8222961425781	-2585.82177734375	342.4265441894531	-308.5055847167969	-2332.11474609375	247.340087890625	-185.6197509765625	-2394.9052734375	292.93603515625	-165.4564056396484	-2540.5830078125	319.3066101074219	-397.5338134765625	-2477.018798828125	131.1184692382812	-204.1910858154297	-2313.269287109375	68.0741958618164	-243.4831848144531	-2549.02978515625	127.7123870849609	-261.6730041503906	-2539.924560546875	93.84117126464844	-287.7409973144531	-2553.461669921875	104.0909042358398	-232.9582672119141	-2600.625732421875	353.2963562011719	-360.4811096191406
46	0.225	-2216.336669921875	1428.739135742188	-440.8389282226562	-2187.899658203125	1392.868530273438	-119.6237564086914	-2275.762451171875	961.644287109375	-436.9288330078125	-2256.268310546875	953.068603515625	-131.4355010986328	-2216.90869140625	913.79833984375	-421.1616821289062	-2547.267578125	356.5034790039062	-337.5515747070312	-2197.769287109375	908.7817993164062	-159.9954681396484	-2342.068359375	834.52197265625	-431.8222045898438	-2343.375732421875	852.6716918945312	-127.7089080810547	-2356.226318359375	1001.748291015625	-280.751708984375	-2147.7939453125	626.420166015625	-455.7386474609375	-2371.932861328125	418.454345703125	-426.4102478027344	-2229.670166015625	604.8336791992188	-454.9817504882812	-2120.3349609375	528.3544921875	-439.6771850585938	-2368.78125	76.0623779296875	-176.1613922119141	-2281.755126953125	458.1081848144531	-443.9237976074219	-2203.9541015625	508.1044006347656	-434.4401550292969	-2195.8486328125	587.3430786132812	-138.7610168457031	-2447.07080078125	136.2920379638672	-372.5332641601562	-2273.375732421875	583.6583251953125	-135.0182037353516	-2192.985595703125	490.2079772949219	-168.4420623779297	-2273.091552734375	489.2178955078125	-160.31103515625	-2159.270263671875	474.2147216796875	-441.1844177246094	-2244.36669921875	452.9706726074219	-160.912841796875	-2248.30517578125	383.5454711914062	-436.9795227050781	-2340.31298828125	345.0418090820312	-426.0250854492188	-2268.927001953125	330.2338562011719	-170.5953369140625	-2487.490966796875	177.5037994384766	-427.6267700195312	-2332.64501953125	375.1864013671875	-150.8932952880859	-2560.329833984375	332.2464294433594	-308.218017578125	-2328.988037109375	249.3895111083984	-184.9173431396484	-2390.54150390625	295.1953125	-165.0828247070312	-2514.216552734375	312.276611328125	-397.5558471679688	-2474.2451171875	134.9011077880859	-203.9527893066406	-2313.648193359375	67.81671142578125	-244.0401611328125	-2546.276611328125	132.5837249755859	-261.9304809570312	-2537.9296875	98.37200927734376	-287.6785888671875	-2551.578125	109.2431488037109	-232.659423828125	-2574.674072265625	342.2081298828125	-360.2980041503906
